<?xml version="1.0" encoding="UTF-8"?>
<svg id="Layer_1" data-name="Layer 1" xmlns="http://www.w3.org/2000/svg" xmlns:xlink="http://www.w3.org/1999/xlink" viewBox="8 8 64 64">
  <defs>
    <style>
      .cls-1 {
        fill: url(#linear-gradient);
      }

      .cls-custom {
        fill: #fff;
      }

      .cls-2 {
        mask: url(#mask);
      }

      .cls-3 {
        fill: #fff;
      }

      .cls-4 {
        filter: url(#luminosity-invert);
      }

      .cls-5 {
        fill: url(#linear-gradient);
      }
    </style>
    <linearGradient id="linear-gradient" x1="26.86" y1="40.25" x2="53.14" y2="40.25" gradientUnits="userSpaceOnUse">
      <stop offset="0" stop-color="#eac45f"/>
      <stop offset="1" stop-color="#e2a022"/>
    </linearGradient>
  </defs>
  <circle class="cls-1" cx="40" cy="40.25" r="13.14"/>
  
  <g transform='translate(15,30) scale(0.4)'>
    <path class="cls-1" d="M60.64,37.81c-1.39-1.53-3.3-2.48-5.36-2.66-1.32-.11-2.65-.03-3.94.25-.72-2.36-2.19-4.42-4.19-5.87-2-1.45-4.42-2.2-6.89-2.14-5.54,0-9.85,3.45-10.46,7.88-1.2-.26-2.86-.12-2.86-.12-5.42.37-9.73,4.31-9.73,9.11,0,5.05,4.62,9.11,10.46,9.11h23.55c5.66,0,11.57-2.22,11.57-9.97,0-2.07-.76-4.06-2.15-5.59Z"/>

    
    <g class="cls-2">
      <path class="cls-3" d="M60.64,37.81c-1.39-1.53-3.3-2.48-5.36-2.66-1.32-.11-2.65-.03-3.94.25-.72-2.36-2.19-4.42-4.19-5.87-2-1.45-4.42-2.2-6.89-2.14-5.54,0-9.85,3.45-10.46,7.88-1.2-.26-2.86-.12-2.86-.12-5.42.37-9.73,4.31-9.73,9.11,0,5.05,4.62,9.11,10.46,9.11h23.55c5.66,0,11.57-2.22,11.57-9.97,0-2.07-.76-4.06-2.15-5.59Z"/>
    </g>
  </g>
</svg>